# xmcd
#
# Track frame offsets:
#	150
#	9787
#	24179
#	38245
#	49592
#	59625
#	71810
#	84754
#	94364
#	107291
#	122228
#	133386
#	150331
#	162090
#
# Disc length: 2295 seconds
#
# Revision: 1
# Processed by: cddbd v1.5.2PL0 Copyright (c) Steve Scherf et al.
# Submitted via: audiograbber 1.83.01
#
DISCID=a808f50e
DTITLE=Various Artist - Trucker and Country Christmas [CD 1)
DYEAR=1900
DGENRE=Country
TTITLE0=Dave Dudley - Oh, Christmas Tree
TTITLE1=Lynn Anderson - Joy To The World
TTITLE2=Bud Martin - Save Some Champagne For Santa Claus
TTITLE3=Ty Hunter - Christmas
TTITLE4=Bobby Bare - Jesus Is The Only That Loves Us
TTITLE5=Johnny Guitar - Snow Falls Over The Ground
TTITLE6=Sarah Lee and The Santa Claus Singers - Very Special Christmas
TTITLE7=Dave Dudley - Jingle Bells
TTITLE8=Ty Hunter - The Gift I Con Return
TTITLE9=Bud Martin - Little Baby Jesus
TTITLE10=Dave Dudley - I Wish You Were Here
TTITLE11=Ty Hunter - Christmas Without You
TTITLE12=Bud Martin - The First Flake To Fall
TTITLE13=Dave Dudley - Oh, Come All Ye Faithful
EXTD=
EXTT0=
EXTT1=
EXTT2=
EXTT3=
EXTT4=
EXTT5=
EXTT6=
EXTT7=
EXTT8=
EXTT9=
EXTT10=
EXTT11=
EXTT12=
EXTT13=
PLAYORDER=
